<?xml version="1.0" standalone="no"?>
<!DOCTYPE svg PUBLIC "-//W3C//DTD SVG 20010904//EN"
 "http://www.w3.org/TR/2001/REC-SVG-20010904/DTD/svg10.dtd">
<svg version="1.0" xmlns="http://www.w3.org/2000/svg"
 width="579.000000pt" height="898.000000pt" viewBox="0 0 579.000000 898.000000"
 preserveAspectRatio="xMidYMid meet">

<g transform="translate(0.000000,898.000000) scale(0.100000,-0.100000)"
fill="#000000" stroke="none">
<path d="M725 7703 c-395 -703 -719 -1280 -721 -1283 -4 -8 1431 -2555 1439
-2555 5 0 331 574 726 1275 l717 1275 1437 3 c790 1 1437 5 1437 9 0 3 -322
579 -716 1280 l-716 1273 -1443 0 -1442 0 -718 -1277z"/>
<path d="M4261 4979 c-44 -79 -368 -655 -719 -1279 l-639 -1135 -1441 -3
-1440 -2 720 -1280 720 -1280 1442 0 1442 0 718 1277 c396 703 719 1282 719
1288 0 11 -1418 2534 -1433 2549 -4 4 -44 -57 -89 -135z"/>
</g>
</svg>
